<svg width="45" height="40" viewBox="0 0 45 40" fill="none" xmlns="http://www.w3.org/2000/svg">
<path d="M43.9361 9.61538L32.9081 0.760946C32.5352 0.424701 31.9492 0.480742 31.6295 0.873027C30.4575 2.27405 27.4208 5.18816 22.4663 5.18816C17.5117 5.18816 14.475 2.27405 13.303 0.873027C12.9833 0.480742 12.4506 0.424701 12.0244 0.760946L0.943208 9.61538C0.0908097 10.2879 -0.01574 11.5208 0.676834 12.3614L5.31176 17.9654C5.79123 18.5259 6.53708 18.6379 7.17638 18.3017L10.1065 16.4523L8.66807 37.3555C8.61479 38.4764 9.46719 39.429 10.5327 39.429H34.3998C35.4653 39.429 36.3177 38.4764 36.2645 37.3555L34.826 16.4523L37.7562 18.3017C38.3422 18.694 39.1413 18.5259 39.6208 17.9654L44.2557 12.3614C44.895 11.5208 44.7885 10.2879 43.9361 9.61538ZM22.4663 25.4189C20.9746 25.4189 19.8025 24.186 19.8025 22.6168C19.8025 21.0477 20.9746 19.8148 22.4663 19.8148C23.958 19.8148 25.13 21.0477 25.13 22.6168C25.13 24.186 23.958 25.4189 22.4663 25.4189ZM22.4663 15.8919C20.9746 15.8919 19.8025 14.659 19.8025 13.0899C19.8025 11.5208 20.9746 10.2879 22.4663 10.2879C23.958 10.2879 25.13 11.5208 25.13 13.0899C25.13 14.659 23.958 15.8919 22.4663 15.8919Z" fill="#E2DED3"/>
</svg>
