<svg width="47" height="43" viewBox="0 0 47 43" fill="none" xmlns="http://www.w3.org/2000/svg">
<path d="M46.7778 19.8285C46.7778 21.0837 45.7645 22.1108 44.5261 22.1108H40.5856V38.0867C40.5856 40.5972 38.559 42.6513 36.0822 42.6513H10.8067C8.32986 42.6513 6.30332 40.5972 6.30332 38.0867V22.1108H2.36282C1.12438 22.1108 0.111115 21.0837 0.111115 19.8285C0.111115 18.5732 1.12438 17.5462 2.36282 17.5462H44.5824C45.7645 17.5462 46.7778 18.5732 46.7778 19.8285ZM37.6021 8.41706C39.5723 8.41706 41.1485 10.0147 41.1485 12.0117V14.1228H5.68408V12.0117C5.68408 10.0147 7.2603 8.41706 9.23055 8.41706H15.8168C15.8168 4.02367 19.3632 0.429077 23.6978 0.429077C28.0323 0.429077 31.5787 4.02367 31.5787 8.41706H37.6021ZM20.3202 8.41706H27.0753C27.0753 6.53418 25.5554 4.99364 23.6978 4.99364C21.8401 4.99364 20.3202 6.53418 20.3202 8.41706Z" fill="#E2DED3"/>
</svg>
