<svg width="38" height="45" viewBox="0 0 38 45" fill="none" xmlns="http://www.w3.org/2000/svg">
<ellipse cx="14.6823" cy="19.6875" rx="12.9545" ry="12.9375" fill="black" fill-opacity="0.6"/>
<path fill-rule="evenodd" clip-rule="evenodd" d="M19.2944 29.0458C26.9127 29.0458 33.2125 24.3036 33.2125 18.6723C33.2125 13.041 26.9127 8.29881 19.2944 8.29881C11.6761 8.29881 5.37635 13.041 5.37635 18.6723C5.37635 24.4518 11.6761 29.0458 19.2944 29.0458ZM25.1546 33.7879C32.1869 31.8614 37.1681 26.5265 37.1681 20.1542C37.1681 12.1518 29.2568 5.63135 19.2944 5.63135C9.33201 5.63135 1.4207 12.1518 1.12769 20.1542C1.12769 26.5265 6.25539 32.0096 13.4342 33.9361C13.5807 33.9361 13.7272 33.9732 13.8737 34.0102C14.0202 34.0473 14.1667 34.0843 14.3132 34.0843C15.9248 34.5289 17.5363 34.6771 19.1479 34.6771C20.7595 34.6771 22.5175 34.3807 23.9826 34.0843C24.1842 34.0163 24.3857 33.9796 24.5732 33.9453C24.7944 33.9049 24.996 33.8682 25.1546 33.7879ZM19.2944 7.26147C27.7917 7.26147 34.6775 12.5964 34.6775 19.1169C34.6775 25.6373 27.7917 30.9723 19.2944 30.9723C10.7971 30.9723 3.91129 25.6373 3.91129 19.1169C3.91129 12.5964 10.7971 7.26147 19.2944 7.26147ZM14.1667 35.5662C15.7783 36.0108 17.5363 36.159 19.2944 36.159C21.0525 36.159 22.8105 35.8626 24.4221 35.5662V37.0482C24.4221 38.0855 23.6896 38.9747 22.664 39.1229C21.6385 39.271 20.4664 39.4192 19.2944 39.4192C18.2408 39.4192 17.3055 39.2995 16.2758 39.1676C16.1601 39.1528 16.0432 39.1378 15.9248 39.1229C14.8992 38.9747 14.1667 38.0855 14.1667 37.0482V35.5662ZM16.7931 20.3776H19.5845L22.475 25.9309H25.1576V25.8022L21.9207 19.7936C22.7521 19.4438 23.3989 18.9456 23.8608 18.2989C24.3294 17.6456 24.5636 16.8372 24.5636 15.8737C24.5636 14.4615 24.1116 13.3825 23.2075 12.6368C22.3034 11.8911 21.0199 11.5182 19.3569 11.5182H14.2887V25.9309H16.7931V20.3776ZM19.3668 18.3682H16.7931V13.5376H19.4361C20.3071 13.5508 20.9605 13.7685 21.396 14.1909C21.8382 14.6132 22.0592 15.2105 22.0592 15.9826C22.0592 16.7217 21.8217 17.3057 21.3465 17.7347C20.8714 18.157 20.2115 18.3682 19.3668 18.3682Z" fill="#E2DED3"/>
</svg>
