<svg width="40" height="40" viewBox="0 0 40 40" fill="none" xmlns="http://www.w3.org/2000/svg">
<rect x="7" y="12" width="25" height="17" fill="black" fill-opacity="0.6"/>
<path fill-rule="evenodd" clip-rule="evenodd" d="M29.1586 6C31.5088 6 33.5418 7.63688 34.0434 9.93301L38.7702 31.5732C39.0426 32.8203 38.0928 34 36.8163 34H5.00024C3.89567 34 3.00024 33.1046 3.00024 32V8C3.00024 6.89543 3.89567 6 5.00024 6H29.1586ZM15.9841 22.3403H18.3181L20.9841 27.5454H24.1287V27.4087L21.0525 21.5982C21.9054 21.214 22.5401 20.6997 22.9568 20.0552C23.38 19.4041 23.5916 18.5936 23.5916 17.6235C23.5916 16.2564 23.1358 15.1984 22.2244 14.4497C21.3129 13.701 20.0173 13.3267 18.3376 13.3267H13.0544V27.5454H15.9841V22.3403ZM18.3474 19.9673H15.9841V15.6997H18.3376C19.1254 15.6997 19.7081 15.8918 20.0857 16.2759C20.4698 16.66 20.6619 17.1873 20.6619 17.8579C20.6619 18.5155 20.46 19.033 20.0564 19.4107C19.6528 19.7817 19.0831 19.9673 18.3474 19.9673Z" fill="#E2DED3"/>
</svg>
