<svg width="43" height="43" viewBox="0 0 43 43" fill="none" xmlns="http://www.w3.org/2000/svg">
<path d="M22.5839 1.15417L28.1182 12.9263C28.2809 13.3244 28.6608 13.6087 29.0948 13.6656L41.4657 15.5423C42.4966 15.7129 42.9306 17.0778 42.171 17.8171L33.2184 26.9732C32.8929 27.2576 32.7844 27.7126 32.8386 28.1675L34.9547 41.0771C35.1175 42.1576 34.0323 43.0106 33.1099 42.4988L22.0413 36.4137C21.6615 36.1862 21.2274 36.1862 20.8476 36.4137L9.77893 42.4988C8.85654 43.0106 7.71714 42.1576 7.93417 41.0771L10.0502 28.1675C10.1045 27.7126 9.99595 27.3145 9.67041 26.9732L0.717819 17.8171C-0.0417949 17.021 0.392296 15.7129 1.4232 15.5423L13.794 13.6656C14.2281 13.6087 14.5536 13.3244 14.7707 12.9263L20.305 1.15417C20.7391 0.187379 22.0955 0.187379 22.5839 1.15417Z" fill="#E2DED3"/>
</svg>
