<svg width="39" height="43" viewBox="0 0 39 43" fill="none" xmlns="http://www.w3.org/2000/svg">
<path d="M38.3334 22.6512C38.3334 33.4289 29.8606 42.7066 19.3911 42.6511C8.86753 42.5955 0.448696 32.7622 0.556629 21.929C0.71853 6.98459 5.57556 6.65126 13.023 6.92904C13.8864 6.98459 15.1277 8.26236 15.1277 9.15125V10.1512C15.1277 10.7624 14.588 11.3179 13.9944 11.2623L12.5373 11.1512C11.296 11.0957 10.2707 12.0957 10.2707 13.3734L10.3246 13.7068C10.3786 14.429 10.9722 15.0401 11.6738 15.0957L16.207 15.5957C18.3657 15.8734 20.5783 15.8734 22.791 15.5957L27.3242 15.0957C28.0258 15.0401 28.6194 14.429 28.6734 13.7068L28.7273 13.3734C28.7273 12.0957 27.7019 11.0957 26.4607 11.1512L25.0036 11.2623C24.41 11.3179 23.8703 10.8179 23.8703 10.1512V9.15125C23.8703 8.26236 25.1115 6.92904 25.975 6.92904C33.4224 6.70682 38.3334 7.04015 38.3334 22.6512ZM21.064 12.4846L21.6037 1.7624C21.6037 1.04018 21.0101 0.429077 20.3085 0.429077H18.5276C17.826 0.429077 17.2324 1.04018 17.2324 1.7624L17.7721 12.4846C17.7721 13.2068 18.3657 13.8179 19.0672 13.8179H19.7688C20.5244 13.7623 21.064 13.2068 21.064 12.4846Z" fill="#E2DED3"/>
</svg>
