<svg width="28" height="28" viewBox="0 0 28 28" fill="none" xmlns="http://www.w3.org/2000/svg">
<path fill-rule="evenodd" clip-rule="evenodd" d="M13.9998 27.3334C21.3636 27.3334 27.3332 21.3639 27.3332 14.0001C27.3332 6.63628 21.3636 0.666748 13.9998 0.666748C6.63604 0.666748 0.666504 6.63628 0.666504 14.0001C0.666504 21.3639 6.63604 27.3334 13.9998 27.3334ZM15.3333 8.33342V12.6668H19.6667C20.219 12.6668 20.6667 13.1145 20.6667 13.6668V14.3334C20.6667 14.8857 20.219 15.3334 19.6667 15.3334H15.3333V19.6668C15.3333 20.219 14.8856 20.6668 14.3333 20.6668H13.6667C13.1144 20.6668 12.6667 20.219 12.6667 19.6668V15.3334H8.33333C7.78105 15.3334 7.33333 14.8857 7.33333 14.3334V13.6668C7.33333 13.1145 7.78105 12.6668 8.33333 12.6668H12.6667V8.33342C12.6667 7.78114 13.1144 7.33342 13.6667 7.33342H14.3333C14.8856 7.33342 15.3333 7.78113 15.3333 8.33342Z" fill="#E2DED3"/>
</svg>
