<svg width="47" height="47" viewBox="0 0 47 47" fill="none" xmlns="http://www.w3.org/2000/svg">
<path d="M41.1587 31.1011V35.4709H35.3619V41.261H30.9869V39.2946V37.1643V34.2146L7.47141 10.7266L6.48703 12.6931L5.61204 14.3864C5.33861 14.9326 4.5183 14.878 4.29955 14.2771L0.143326 1.05834C-0.0207355 0.566731 0.471449 0.075122 0.963634 0.238992L14.1979 4.39035C14.7995 4.55422 14.8542 5.37357 14.3073 5.64669L12.5026 6.57528L10.5339 7.61312L34.1041 31.1557H39.19L41.1587 31.1011ZM13.7057 20.7227C13.8698 20.3403 13.8151 19.9033 13.5417 19.6302L10.0964 16.189C9.82296 15.9158 9.44014 15.9705 9.22139 16.2436C4.24486 23.727 4.13548 32.9036 9.6042 38.366C10.1511 38.9122 10.6979 39.3492 11.2995 39.7862L8.23702 42.8451C7.52609 43.5552 7.52609 44.7023 8.23702 45.467L9.11202 46.3409C9.82295 47.051 10.9714 47.051 11.737 46.3409L25.3541 32.7398C25.7369 32.3574 25.7369 31.7566 25.3541 31.3742L23.2213 29.2439C22.8385 28.8615 22.2369 28.8615 21.8541 29.2439L16.6589 34.4331C16.0026 34.0507 15.4557 33.6137 14.9089 33.0675C11.737 30.1179 11.4636 25.1472 13.7057 20.7227ZM42.6899 8.43247L39.6275 11.4914C39.19 10.8905 38.7525 10.3443 38.2056 9.79805C32.7916 4.39035 23.7135 4.39035 16.2214 9.30644C15.9479 9.52493 15.8932 9.90729 16.112 10.1804L19.5573 13.6217C19.8307 13.8948 20.2682 14.004 20.651 13.8402C25.026 11.7099 29.8932 12.0376 32.9556 15.0965C33.5025 15.6427 33.94 16.189 34.3228 16.8444L29.2369 21.9244C28.8541 22.3068 28.8541 22.9076 29.2369 23.29L31.3697 25.4203C31.7525 25.8026 32.3541 25.8026 32.7369 25.4203L46.2446 11.9284C46.9555 11.2182 46.9555 10.0712 46.2446 9.30644L45.3696 8.43247C44.604 7.72237 43.4009 7.72237 42.6899 8.43247Z" fill="#E2DED3"/>
</svg>
