<svg width="43" height="43" viewBox="0 0 43 43" fill="none" xmlns="http://www.w3.org/2000/svg">
<path d="M42.1752 12.4222L20.6565 32.5749L16.418 28.3034L26.7969 17.8437L27.5577 15.5436L25.2754 16.3103L14.8964 26.7701L10.6579 22.4985L30.6551 0.812418L42.5555 0.429077L42.1752 12.4222ZM21.0912 36.4083L6.52808 21.7319C5.76732 20.9652 4.57184 20.9652 3.81108 21.7319L2.72428 22.8271C1.96351 23.5938 1.96351 24.7986 2.72428 25.5653L7.88658 30.7677L0.985394 37.7226C0.115953 38.5988 0.115953 40.0774 0.985394 40.9537L2.01785 41.9941C2.8873 42.8704 4.35448 42.8704 5.22392 41.9941L12.0708 35.094L17.2331 40.2965C17.9938 41.0632 19.1893 41.0632 19.9501 40.2965L21.0369 39.2012C21.852 38.3798 21.852 37.175 21.0912 36.4083Z" fill="#E2DED3"/>
</svg>
